<svg id="Layer_1" data-name="Layer 1" xmlns="http://www.w3.org/2000/svg" viewBox="0 0 289.23 125.13"><defs><style>.cls-1,.cls-2,.cls-4,.cls-5,.cls-6,.cls-7,.cls-8,.cls-9{fill:#fff;}.cls-1{stroke:#06603f;}.cls-1,.cls-2,.cls-3,.cls-4,.cls-5,.cls-6,.cls-7,.cls-8,.cls-9{stroke-width:2px;}.cls-2{stroke:#1a7f5a;}.cls-2,.cls-3{stroke-miterlimit:10;}.cls-3{fill:#606060;}.cls-3,.cls-4{stroke:#b4e9d6;}.cls-5{stroke:#8cdec0;}.cls-6{stroke:#179b6b;}.cls-7{stroke:#d0f1e5;}.cls-8{stroke:#2eb885;}.cls-9{stroke:#e6fef5;}</style></defs><title>Untitled-1</title><line class="cls-1" x1="109.8" y1="96.6" x2="145.58" y2="124.34"/><line class="cls-2" x1="0.95" y1="12.5" x2="106.5" y2="94.36"/><line class="cls-3" x1="106.5" y1="82.73" x2="142.27" y2="110.47"/><line class="cls-4" x1="13.89" y1="0.79" x2="62.62" y2="38.58"/><line class="cls-5" x1="0.61" y1="0.79" x2="25.85" y2="20.37"/><line class="cls-6" x1="42.01" y1="32.94" x2="100.44" y2="78.25"/><line class="cls-1" x1="28.57" y1="22.43" x2="39.09" y2="30.59"/><line class="cls-7" x1="72.88" y1="46.49" x2="108.65" y2="74.24"/><line class="cls-5" x1="117.05" y1="80.66" x2="131.86" y2="92.15"/><line class="cls-8" x1="53.72" y1="20.52" x2="117.05" y2="69.63"/><line class="cls-9" x1="38.25" y1="8.57" x2="49.24" y2="17.09"/><line class="cls-1" x1="179.42" y1="96.6" x2="143.65" y2="124.34"/><line class="cls-2" x1="288.28" y1="12.5" x2="182.73" y2="94.36"/><line class="cls-3" x1="182.73" y1="82.73" x2="146.95" y2="110.47"/><line class="cls-4" x1="275.34" y1="0.79" x2="226.61" y2="38.58"/><line class="cls-5" x1="288.61" y1="0.79" x2="263.37" y2="20.37"/><line class="cls-6" x1="247.21" y1="32.94" x2="188.79" y2="78.25"/><line class="cls-1" x1="260.65" y1="22.43" x2="250.14" y2="30.59"/><line class="cls-7" x1="216.35" y1="46.49" x2="180.58" y2="74.24"/><line class="cls-5" x1="172.18" y1="80.66" x2="157.36" y2="92.15"/><line class="cls-8" x1="235.5" y1="20.52" x2="172.18" y2="69.63"/><line class="cls-9" x1="250.97" y1="8.57" x2="239.99" y2="17.09"/></svg>