<svg id="Layer_1" data-name="Layer 1" xmlns="http://www.w3.org/2000/svg" viewBox="0 0 288 560"><defs><style>.cls-1,.cls-2,.cls-4,.cls-5,.cls-6,.cls-7,.cls-8,.cls-9{fill:#fff;}.cls-1{stroke:#06603f;}.cls-1,.cls-2,.cls-3,.cls-4,.cls-5,.cls-6,.cls-7,.cls-8,.cls-9{stroke-width:2px;}.cls-2{stroke:#1a7f5a;}.cls-2,.cls-3{stroke-miterlimit:10;}.cls-3{fill:#606060;}.cls-3,.cls-4{stroke:#b4e9d6;}.cls-5{stroke:#8cdec0;}.cls-6{stroke:#179b6b;}.cls-7{stroke:#d0f1e5;}.cls-8{stroke:#2eb885;}.cls-9{stroke:#e6fef5;}</style></defs><title>Artboard 1</title><line class="cls-1" x1="109.19" y1="516.1" x2="144.96" y2="543.85"/><line class="cls-2" x1="0.34" y1="432" x2="105.89" y2="513.86"/><line class="cls-3" x1="105.89" y1="502.23" x2="141.66" y2="529.97"/><line class="cls-4" x1="13.28" y1="420.29" x2="62.01" y2="458.08"/><line class="cls-5" y1="420.29" x2="25.24" y2="439.87"/><line class="cls-6" x1="41.4" y1="452.44" x2="99.82" y2="497.75"/><line class="cls-1" x1="27.96" y1="441.93" x2="38.48" y2="450.09"/><line class="cls-7" x1="72.26" y1="465.99" x2="108.04" y2="493.74"/><line class="cls-5" x1="116.43" y1="500.16" x2="131.25" y2="511.65"/><line class="cls-8" x1="53.11" y1="440.02" x2="116.43" y2="489.13"/><line class="cls-9" x1="37.64" y1="428.07" x2="48.62" y2="436.59"/><line class="cls-1" x1="178.81" y1="516.1" x2="143.04" y2="543.85"/><line class="cls-2" x1="287.66" y1="432" x2="182.11" y2="513.86"/><line class="cls-3" x1="182.11" y1="502.23" x2="146.34" y2="529.97"/><line class="cls-4" x1="274.72" y1="420.29" x2="225.99" y2="458.08"/><line class="cls-5" x1="288" y1="420.29" x2="262.76" y2="439.87"/><line class="cls-6" x1="246.6" y1="452.44" x2="188.18" y2="497.75"/><line class="cls-1" x1="260.04" y1="441.93" x2="249.52" y2="450.09"/><line class="cls-7" x1="215.74" y1="465.99" x2="179.96" y2="493.74"/><line class="cls-5" x1="171.57" y1="500.16" x2="156.75" y2="511.65"/><line class="cls-8" x1="234.89" y1="440.02" x2="171.57" y2="489.13"/><line class="cls-9" x1="250.36" y1="428.07" x2="239.38" y2="436.59"/></svg>