<svg id="Layer_1" data-name="Layer 1" xmlns="http://www.w3.org/2000/svg" viewBox="0 0 162.01 189.49"><defs><style>.cls-1,.cls-2,.cls-4,.cls-5,.cls-6,.cls-7,.cls-8,.cls-9{fill:#fff;}.cls-1{stroke:#bef9f3;}.cls-1,.cls-2,.cls-3,.cls-4,.cls-5,.cls-6,.cls-7,.cls-8,.cls-9{stroke-width:2px;}.cls-2,.cls-9{stroke:#9aefde;}.cls-2,.cls-3{stroke-miterlimit:10;}.cls-3{fill:#606060;}.cls-3,.cls-7{stroke:#5bc8b2;}.cls-4{stroke:#6cdac4;}.cls-5{stroke:#dffcf6;}.cls-6{stroke:#063c31;}.cls-8{stroke:#239a82;}</style></defs><title>sidearrow2</title><line class="cls-1" x1="125.33" y1="117.44" x2="161.47" y2="94.12"/><line class="cls-2" x1="15.79" y1="188.43" x2="122.41" y2="119.6"/><line class="cls-3" x1="107.27" y1="119.6" x2="143.4" y2="96.27"/><line class="cls-4" x1="0.54" y1="179.99" x2="49.77" y2="148.21"/><line class="cls-5" x1="0.54" y1="188.65" x2="26.04" y2="172.19"/><line class="cls-1" x1="42.42" y1="161.65" x2="101.43" y2="123.55"/><line class="cls-6" x1="28.73" y1="170.41" x2="39.35" y2="163.56"/><line class="cls-7" x1="60.07" y1="141.52" x2="96.21" y2="118.2"/><line class="cls-6" x1="104.57" y1="112.72" x2="119.54" y2="103.06"/><line class="cls-8" x1="26.24" y1="154.01" x2="90.21" y2="112.72"/><line class="cls-9" x1="10.67" y1="164.1" x2="21.77" y2="156.94"/><line class="cls-1" x1="125.33" y1="72.04" x2="161.47" y2="95.37"/><line class="cls-2" x1="15.79" y1="1.06" x2="122.41" y2="69.89"/><line class="cls-3" x1="107.27" y1="69.89" x2="143.4" y2="93.22"/><line class="cls-4" x1="0.54" y1="9.5" x2="49.77" y2="41.28"/><line class="cls-5" x1="0.54" y1="0.84" x2="26.04" y2="17.3"/><line class="cls-1" x1="42.42" y1="27.84" x2="101.43" y2="65.94"/><line class="cls-6" x1="28.73" y1="19.07" x2="39.35" y2="25.93"/><line class="cls-7" x1="60.07" y1="47.96" x2="96.21" y2="71.29"/><line class="cls-6" x1="104.57" y1="76.77" x2="119.54" y2="86.43"/><line class="cls-8" x1="26.24" y1="35.47" x2="90.21" y2="76.77"/><line class="cls-9" x1="10.67" y1="25.39" x2="21.77" y2="32.55"/></svg>